HIERARCHY
ROOT Hips
{
	OFFSET 0.00000 0.00000 0.00000
	CHANNELS 6 Xposition Yposition Zposition Yrotation Zrotation Xrotation 
	JOINT Lumbar
	{
		OFFSET 0 0 0
		CHANNELS 3 Zrotation Xrotation Yrotation
		JOINT Neck
		{
			OFFSET 0.00 0.2701 0.00
			CHANNELS 3 Zrotation Xrotation Yrotation
			End Site
			{
				OFFSET 0.00 0.1379 0.00
			}
		}
		JOINT RightShoulder
		{
			OFFSET 0.0119 0.2289 0.1181
			CHANNELS 3 Zrotation Xrotation Yrotation
			JOINT RightElbow
			{
				OFFSET 0.00 -0.1475 0.00
				CHANNELS 2 Zrotation Yrotation
				JOINT RightWrist
				{
					OFFSET 0.00 -0.1605 0.00
					CHANNELS 2 Zrotation Xrotation
					End Site
					{
						OFFSET 0.0040 -0.1068 0.0006
					}
				}
			}
		}
		JOINT LeftShoulder
		{
			OFFSET 0.0119 0.2289 -0.1181
			CHANNELS 3 Zrotation Xrotation Yrotation
			JOINT LeftElbow
			{
				OFFSET 0.00 -0.1475 0.00
				CHANNELS 2 Zrotation Yrotation
				JOINT LeftWrist
				{
					OFFSET 0.00 -0.1605 0.00
					CHANNELS 2 Zrotation Xrotation
					End Site
					{
						OFFSET 0.0040 -0.1068 -0.0006
					}
				}
			}
		}
	}
	JOINT RightHip
	{
		OFFSET 0.0316 -0.0424 0.0458
		CHANNELS 3 Zrotation Xrotation Yrotation
		JOINT RightKnee
		{
			OFFSET 0.00 -0.2438 0.00
			CHANNELS 1 Zrotation
			JOINT RightAnkle
			{
				OFFSET 0.00 -0.2449 0.00
				CHANNELS 3 Zrotation Xrotation Yrotation
				End Site
				{
					OFFSET 0.1237 -0.0542 0.0051
				}
			}
		}
	}
	JOINT LeftHip
	{
		OFFSET 0.0316 -0.0424 -0.0458
		CHANNELS 3 Zrotation Xrotation Yrotation
		JOINT LeftKnee
		{
			OFFSET 0.00 -0.2438 0.00
			CHANNELS 1 Zrotation
			JOINT LeftAnkle
			{
				OFFSET 0.00 -0.2449 0.00
				CHANNELS 3 Zrotation Xrotation Yrotation
				End Site
				{
					OFFSET 0.1237 -0.0542 -0.0051
				}
			}
		}
	}
}
MOTION
Frames: 33
Frame Time: 0.02
-0.03061 -0.29295 -0.01439 -160.26143 -29.36133 8.17884 37.94363 4.02365 4.42201 0.79979 -13.35862 -2.11694 53.0606 0.27785 31.50892 86.3616 107.28338 -38.49795 -6.16818 115.46842 6.41919 -49.37989 35.38803 -37.79587 51.24629 7.81505 30.65625 -12.93896 -1.75922 -123.88071 -5.4373 -1.41292 -2.86438 110.9893 2.19671 2.59578 -139.81564 -5.3094 1.92281 3.10722
-0.03254 -0.2927 -0.01549 -160.45345 -29.00205 8.38892 38.35695 3.98578 4.62004 0.86278 -13.35954 -2.11694 52.18105 0.53578 31.74227 86.83761 105.76198 -37.26186 -6.02981 114.67119 7.03093 -49.59438 36.47828 -37.76543 51.19165 7.8418 29.95015 -12.90306 -1.67877 -123.45175 -5.44245 -1.4018 -2.86116 110.38678 2.31975 2.24852 -140.00718 -5.32008 1.89175 3.09365
-0.03455 -0.29238 -0.01648 -160.69835 -28.67449 8.63187 38.84261 3.92969 4.82971 0.98825 -13.34567 -2.11695 51.13117 0.80859 32.05556 87.65906 103.32971 -35.24273 -5.819 113.818 7.76623 -49.81826 37.87474 -37.78701 51.12569 7.87121 29.26048 -12.8896 -1.49666 -122.98501 -5.44788 -1.3895 -2.85884 109.79439 2.48147 1.92429 -140.20445 -5.32917 1.85349 3.07677
-0.03653 -0.2921 -0.01751 -160.91823 -28.32995 8.85742 39.29631 3.88535 5.02698 1.07489 -13.33937 -2.11696 50.15759 1.07325 32.34152 88.34592 101.42605 -33.67332 -5.65106 112.96589 8.43691 -49.97423 39.15735 -37.88597 51.00556 7.88612 28.55851 -12.86595 -1.36791 -122.53593 -5.45307 -1.37802 -2.85612 109.19501 2.62671 1.59407 -140.40094 -5.3404 1.81882 3.0616
-0.03852 -0.29177 -0.0186 -161.14399 -27.99337 9.09398 39.74786 3.82704 5.25628 1.20388 -13.32915 -2.11696 49.18387 1.34668 32.59025 88.9368 99.05825 -31.7267 -5.44231 112.20737 9.14465 -50.39037 40.34197 -37.57259 51.12695 7.95568 27.87246 -12.84394 -1.20838 -122.08259 -5.45891 -1.36501 -2.85316 108.60035 2.76991 1.24793 -140.59095 -5.35697 1.78376 3.0467
-0.0405 -0.29153 -0.01953 -161.36901 -27.64953 9.31467 40.22077 3.79323 5.41991 1.26065 -13.32338 -2.11697 48.17315 1.60348 32.93506 89.80915 97.42821 -30.36731 -5.30057 111.24873 9.80584 -50.27895 41.79803 -38.1105 50.75257 7.91455 27.15949 -12.82282 -1.08921 -121.62979 -5.46334 -1.35512 -2.85104 108.00052 2.92416 0.93893 -140.79482 -5.34783 1.74679 3.02911
-0.04245 -0.29151 -0.02008 -161.58403 -27.26932 9.48985 40.73013 3.83167 5.41147 1.09657 -13.33759 -2.11698 47.08606 1.81995 33.52642 91.38655 98.12066 -30.8858 -5.36597 109.69528 10.28503 -48.59799 43.95117 -41.16709 48.93099 7.54288 26.36078 -12.80372 -1.10398 -121.19054 -5.46437 -1.35296 -2.85043 107.3816 3.11728 0.73127 -141.04229 -5.39463 1.71456 3.01649
-0.04439 -0.29157 -0.02048 -161.79547 -26.8825 9.64678 41.25872 3.89526 5.33446 0.85907 -13.35614 -2.11699 45.97131 2.01702 34.21075 93.23291 99.57341 -32.00875 -5.50061 107.95371 10.71626 -46.40541 46.36022 -45.04609 46.62637 7.06398 25.53641 -12.78383 -1.16335 -120.75318 -5.46385 -1.35422 -2.85077 106.7584 3.3172 0.5591 -141.30223 -5.39548 1.67924 2.99938
-0.04632 -0.2916 -0.02095 -162.00497 -26.50474 9.80786 41.78187 3.94714 5.28036 0.65921 -13.37012 -2.117 44.87975 2.21683 34.8528 94.949 100.63499 -32.81009 -5.60026 106.33512 11.18508 -44.52024 48.63837 -48.42932 44.59599 6.65016 24.72907 -12.76056 -1.2039 -120.31322 -5.46365 -1.35477 -2.85112 106.13923 3.50157 0.36724 -141.55191 -5.32995 1.63967 2.97637
-0.04831 -0.29162 -0.02142 -162.23101 -26.10293 9.98747 42.29521 3.99956 5.26024 0.44297 -13.39451 -2.11701 43.73624 2.44343 35.50071 96.71291 101.85741 -33.78065 -5.71133 104.55491 11.5945 -42.32233 50.9953 -52.32592 42.33345 6.16809 23.89927 -12.75306 -1.2348 -119.87841 -5.46506 -1.35181 -2.84969 105.51099 3.73793 0.19078 -141.82099 -5.61844 1.62306 2.98564
-0.05018 -0.29168 -0.02185 -162.42155 -25.74866 10.1239 42.83065 4.05706 5.15453 0.2432 -13.39846 -2.11702 42.69798 2.60872 36.15377 98.43427 102.93765 -34.55463 -5.81717 103.06903 12.11099 -40.65027 53.23699 -55.35234 40.44081 5.80183 23.11035 -12.71328 -1.29768 -119.43486 -5.46279 -1.35687 -2.85212 104.90121 3.86958 -0.00901 -142.05281 -5.17665 1.55883 2.92808
-0.05175 -0.29182 -0.02225 -162.51039 -25.53232 10.14375 43.43866 4.12262 4.81497 0.10156 -13.34487 -2.11703 41.94642 2.61524 36.82958 99.9897 103.43864 -34.62146 -5.88099 102.42868 12.96508 -40.58935 55.16295 -55.73589 39.68079 5.78886 22.43757 -12.57498 -1.43874 -118.9582 -5.45023 -1.38432 -2.86553 104.33775 3.68909 -0.28713 -142.17632 -2.57784 1.357 2.67513
-0.0532 -0.292 -0.02262 -162.56415 -25.36309 10.12098 44.06492 4.19251 4.39424 -0.0203 -13.27065 -2.11704 41.30469 2.5595 37.50122 101.48732 103.7745 -34.47595 -5.93892 102.09377 13.92215 -41.06903 56.94979 -55.22251 39.31127 5.89476 21.80753 -12.40571 -1.61072 -118.47452 -5.43412 -1.41955 -2.8827 103.79417 3.40689 -0.58889 -142.26226 0.72392 1.10897 2.3576
-0.05469 -0.29216 -0.023 -162.6368 -25.16865 10.1187 44.67171 4.26038 4.02001 -0.14803 -13.20594 -2.11705 40.62044 2.52852 38.15376 102.99919 104.19152 -34.44307 -6.00763 101.62799 14.81182 -41.27877 58.75685 -55.14468 38.76737 5.94148 21.15959 -12.25703 -1.7687 -117.99974 -5.41999 -1.45049 -2.89775 103.245 3.18488 -0.87673 -142.367 3.60695 0.88621 2.07708
-0.05623 -0.29233 -0.02338 -162.69723 -24.98944 10.11095 45.32611 4.32926 3.6029 -0.29139 -13.14071 -2.11706 39.9035 2.51213 38.89789 104.57438 104.61056 -34.36513 -6.04691 101.12217 15.78752 -41.5726 60.75707 -54.9768 38.19278 6.00631 20.50348 -12.08159 -1.9284 -117.50062 -5.40426 -1.48466 -2.91451 102.68058 2.90368 -1.17748 -142.4651 6.91916 0.64401 1.76284
-0.05764 -0.29248 -0.02375 -162.77444 -24.79052 10.10486 45.88579 4.39681 3.25663 -0.39664 -13.07175 -2.11707 39.28162 2.4504 39.44945 105.99671 104.97401 -34.3198 -6.14216 100.77467 16.60826 -41.82696 62.31548 -54.77382 37.78218 6.06296 19.87594 -11.95361 -2.09074 -117.05086 -5.39101 -1.51402 -2.92866 102.1534 2.72215 -1.45647 -142.5677 9.49316 0.43299 1.50511
-0.0587 -0.29256 -0.02411 -162.90962 -24.51953 10.11233 46.17545 4.45906 3.12667 -0.40034 -12.99628 -2.11707 38.89119 2.28209 39.46629 107.04024 105.24052 -34.43982 -6.41948 100.79161 16.98273 -41.83755 62.71172 -54.67909 37.72329 6.06939 19.30782 -11.97243 -2.25759 -116.7364 -5.38576 -1.52715 -2.93418 101.71838 2.83456 -1.67811 -142.69372 9.9517 0.30476 1.40532
-0.05964 -0.29261 -0.02446 -163.06235 -24.22827 10.12317 46.36959 4.51984 3.07092 -0.36614 -12.91794 -2.11708 38.59331 2.06973 39.28983 107.9247 105.44871 -34.592 -6.74831 100.95811 17.19639 -41.79301 62.66229 -54.57792 37.81985 6.06382 18.76882 -12.03867 -2.42497 -116.47244 -5.38309 -1.53531 -2.93701 101.32127 3.05149 -1.87576 -142.82516 9.62846 0.21168 1.36682
-0.06063 -0.29267 -0.0248 -163.20509 -23.95035 10.1337 46.61021 4.58148 2.98111 -0.34978 -12.84177 -2.11708 38.25629 1.87544 39.20392 108.86197 105.67096 -34.71204 -7.03585 101.05552 17.47973 -41.77768 62.80005 -54.48562 37.85082 6.06323 18.22247 -12.07773 -2.58868 -116.18705 -5.37904 -1.54645 -2.94143 100.91061 3.22511 -2.07878 -142.95283 9.59638 0.11279 1.30995
-0.06162 -0.29274 -0.02518 -163.35514 -23.65665 10.13817 46.8393 4.64233 2.89017 -0.3305 -12.76141 -2.11708 37.91186 1.68727 39.10619 109.88126 105.94595 -34.90181 -7.3979 101.16739 17.78202 -41.7625 62.99822 -54.33982 37.87208 6.06842 17.6526 -12.13907 -2.76778 -115.89469 -5.3757 -1.55493 -2.94452 100.48502 3.37917 -2.30536 -143.08466 9.84578 -0.02832 1.21256
-0.06259 -0.29279 -0.02549 -163.49454 -23.39036 10.15586 47.06849 4.70462 2.81985 -0.30813 -12.68914 -2.11709 37.60204 1.47659 38.98763 110.69066 106.09244 -34.95322 -7.61811 101.28172 18.00406 -41.72798 62.96612 -54.31252 37.94756 6.05757 17.13826 -12.16617 -2.9148 -115.62931 -5.37158 -1.56751 -2.9496 100.09939 3.598 -2.47763 -143.20966 9.33139 -0.07541 1.21274
-0.06354 -0.29276 -0.02565 -163.60067 -23.20505 10.21602 47.32988 4.76924 2.79239 -0.2902 -12.64198 -2.11709 37.3761 1.21599 38.85517 110.976 105.96232 -34.64792 -7.42537 101.35793 18.05481 -41.64643 62.41007 -54.63784 38.1174 6.00243 16.76901 -12.08297 -2.97029 -115.42286 -5.36431 -1.59397 -2.96142 99.81398 3.98842 -2.49909 -143.31408 6.75209 0.14756 1.48513
-0.06447 -0.29272 -0.02575 -163.69551 -23.04785 10.28834 47.59303 4.83567 2.78274 -0.26991 -12.6028 -2.1171 37.17889 0.93439 38.70908 111.05275 105.69771 -34.19973 -7.0901 101.43253 18.02837 -41.54851 61.63751 -55.07916 38.3389 5.93197 16.45483 -11.9646 -2.99375 -115.24245 -5.35625 -1.62444 -2.9752 99.56757 4.43723 -2.46789 -143.41161 3.45886 0.45665 1.84936
-0.0654 -0.29268 -0.02587 -163.79547 -22.87715 10.35083 47.84959 4.90259 2.76273 -0.2483 -12.55868 -2.1171 36.96122 0.66164 38.57176 111.21436 105.44839 -33.79281 -6.82536 101.51046 18.02886 -41.45691 60.9632 -55.46059 38.54476 5.86935 16.11575 -11.86519 -3.03362 -115.05223 -5.34881 -1.65214 -2.98766 99.3037 4.84813 -2.46503 -143.51285 0.58051 0.71914 2.1618
-0.06637 -0.29262 -0.02601 -163.89631 -22.70828 10.43148 48.12704 4.96406 2.75496 -0.23528 -12.51988 -2.1171 36.77945 0.38985 38.41703 111.41237 105.37397 -33.47585 -6.53667 101.57853 18.05585 -41.35815 60.27497 -55.88568 38.71856 5.80094 15.77646 -11.75483 -3.06597 -114.8552 -5.34036 -1.68365 -3.00184 99.03989 5.31174 -2.44259 -143.61219 -2.72219 1.03067 2.52388
-0.06724 -0.29262 -0.02609 -163.99211 -22.5432 10.47731 48.36293 5.03714 2.72479 -0.2045 -12.47207 -2.11711 36.52681 0.11217 38.29755 111.48707 104.92471 -32.95093 -6.26514 101.67017 18.01438 -41.28399 59.56875 -56.22979 38.97512 5.74327 15.45118 -11.65836 -3.10602 -114.67789 -5.33378 -1.70827 -3.01293 98.78495 5.67669 -2.44891 -143.71329 -5.28072 1.23956 2.79717
-0.06787 -0.29277 -0.02605 -164.07948 -22.37627 10.42279 48.48145 5.14364 2.62998 -0.12376 -12.39655 -2.11711 36.08602 -0.1806 38.28255 111.27283 103.29373 -31.76711 -6.06012 101.77824 17.7759 -41.1654 58.8793 -56.48262 39.39527 5.69933 15.14378 -11.60808 -3.17817 -114.54862 -5.33262 -1.71267 -3.0149 98.54289 5.76765 -2.54571 -143.82539 -5.79044 1.33252 2.86192
-0.06839 -0.29297 -0.02594 -164.16165 -22.21335 10.33304 48.5589 5.26144 2.51141 -0.02567 -12.31195 -2.11712 35.57008 -0.47754 38.30385 110.94211 101.32176 -30.39982 -5.87974 101.91722 17.47566 -41.09045 58.17839 -56.62498 39.90471 5.66979 14.84992 -11.5729 -3.25854 -114.43816 -5.33336 -1.71005 -3.01371 98.30873 5.75519 -2.67346 -143.93865 -5.4994 1.29325 2.82589
-0.06895 -0.29314 -0.02586 -164.24425 -22.05223 10.26015 48.65711 5.37295 2.40227 0.06323 -12.23205 -2.11712 35.07809 -0.7698 38.3069 110.66558 99.62677 -29.19644 -5.69847 102.075 17.22381 -41.0767 57.47693 -56.70645 40.40822 5.64741 14.55435 -11.53109 -3.33328 -114.31872 -5.33318 -1.7108 -3.01404 98.07193 5.78027 -2.78869 -144.04843 -5.43934 1.17873 2.79301
-0.06954 -0.29333 -0.02579 -164.33434 -21.87662 10.18399 48.74672 5.4895 2.29941 0.15759 -12.14975 -2.11712 34.6288 -1.0748 38.31636 110.37762 97.42106 -27.65338 -5.46975 102.09924 16.88886 -40.73519 56.79438 -57.24084 40.77213 5.5693 14.24143 -11.48712 -3.41522 -114.20159 -5.33318 -1.71093 -3.01409 97.83195 5.84427 -2.89662 -144.17041 -5.92318 1.59994 2.93077
-0.07005 -0.2935 -0.02568 -164.40809 -21.732 10.10629 48.84418 5.5981 2.1778 0.24488 -12.07051 -2.11713 34.07414 -1.35369 38.32179 110.08698 96.18843 -26.76951 -5.34632 102.40257 16.70645 -41.06819 56.06955 -56.82935 41.44131 5.60753 13.96779 -11.45167 -3.48415 -114.08433 -5.33328 -1.71065 -3.01396 97.60066 5.8058 -3.02642 -144.26737 -5.12815 0.9213 2.70384
-0.07042 -0.29362 -0.02549 -164.43496 -21.67006 10.03157 48.97617 5.68274 2.00812 0.30656 -11.99921 -2.11713 33.23203 -1.5616 38.30325 109.83077 97.82338 -27.80655 -5.51876 103.52407 17.02069 -43.41604 55.25827 -53.61336 42.98438 5.9927 13.79374 -11.43623 -3.51828 -113.95713 -5.33324 -1.71079 -3.01401 97.38522 5.47469 -3.22145 -144.29486 -0.5227 -3.18816 1.35476
-0.07073 -0.29372 -0.02525 -164.44615 -21.6395 9.95679 49.11701 5.7588 1.82068 0.36104 -11.93182 -2.11713 32.28966 -1.74248 38.28019 109.5737 100.43012 -29.50224 -5.79478 104.91522 17.48008 -46.41202 54.40067 -49.48814 44.82245 6.48928 13.65967 -11.42897 -3.53853 -113.82996 -5.33325 -1.71076 -3.014 97.17936 5.0498 -3.4355 -144.29718 5.26443 -8.32721 -0.33437
